HIERARCHY
ROOT Hips
{
	OFFSET 0.00000 0.00000 0.00000
	CHANNELS 6 Xposition Yposition Zposition Zrotation Yrotation Xrotation 
	JOINT LHipJoint
	{
		OFFSET 0 0 0
		CHANNELS 3 Zrotation Yrotation Xrotation
		JOINT LeftUpLeg
		{
			OFFSET 1.38691 -1.89057 0.78360
			CHANNELS 3 Zrotation Yrotation Xrotation
			JOINT LeftLeg
			{
				OFFSET 2.59731 -7.13606 0.00000
				CHANNELS 3 Zrotation Yrotation Xrotation
				JOINT LeftFoot
				{
					OFFSET 2.70078 -7.42033 0.00000
					CHANNELS 3 Zrotation Yrotation Xrotation
					JOINT LeftToeBase
					{
						OFFSET 0.16751 -0.46024 2.68862
						CHANNELS 3 Zrotation Yrotation Xrotation
						End Site
						{
							OFFSET 0.00000 -0.00000 1.37057
						}
					}
				}
			}
		}
	}
	JOINT RHipJoint
	{
		OFFSET 0 0 0
		CHANNELS 3 Zrotation Yrotation Xrotation
		JOINT RightUpLeg
		{
			OFFSET -1.38190 -1.89056 0.78359
			CHANNELS 3 Zrotation Yrotation Xrotation
			JOINT RightLeg
			{
				OFFSET -2.57785 -7.08258 0.00000
				CHANNELS 3 Zrotation Yrotation Xrotation
				JOINT RightFoot
				{
					OFFSET -2.77908 -7.63547 0.00000
					CHANNELS 3 Zrotation Yrotation Xrotation
					JOINT RightToeBase
					{
						OFFSET -0.17921 -0.49237 2.62360
						CHANNELS 3 Zrotation Yrotation Xrotation
						End Site
						{
							OFFSET -0.00000 -0.00000 1.34085
						}
					}
				}
			}
		}
	}
	JOINT LowerBack
	{
		OFFSET 0 0 0
		CHANNELS 3 Zrotation Yrotation Xrotation
		JOINT Spine
		{
			OFFSET -0.10749 2.04110 -0.22549
			CHANNELS 3 Zrotation Yrotation Xrotation
			JOINT Spine1
			{
				OFFSET 0.01213 2.05840 0.00691
				CHANNELS 3 Zrotation Yrotation Xrotation
				JOINT Neck
				{
					OFFSET 0 0 0
					CHANNELS 3 Zrotation Yrotation Xrotation
					JOINT Neck1
					{
						OFFSET 0.06585 1.81215 0.35449
						CHANNELS 3 Zrotation Yrotation Xrotation
						JOINT Head
						{
							OFFSET -0.04315 1.87555 -0.27307
							CHANNELS 3 Zrotation Yrotation Xrotation
							End Site
							{
								OFFSET -0.01775 1.89740 -0.13294
							}
						}
					}
				}
				JOINT LeftShoulder
				{
					OFFSET 0 0 0
					CHANNELS 3 Zrotation Yrotation Xrotation
					JOINT LeftArm
					{
						OFFSET 2.98012 1.63606 0.28888
						CHANNELS 3 Zrotation Yrotation Xrotation
						JOINT LeftForeArm
						{
							OFFSET 5.59864 -0.00000 -0.00000
							CHANNELS 3 Zrotation Yrotation Xrotation
							JOINT LeftHand
							{
								OFFSET 3.59542 -0.00000 -0.00000
								CHANNELS 3 Zrotation Yrotation Xrotation
								JOINT LeftFingerBase
								{
									OFFSET 0 0 0
									CHANNELS 3 Zrotation Yrotation Xrotation
									JOINT LeftHandIndex1
									{
										OFFSET 0.57201 -0.00000 -0.00000
										CHANNELS 3 Zrotation Yrotation Xrotation
										End Site
										{
											OFFSET 0.46117 -0.00000 -0.00000
										}
									}
								}
								JOINT LThumb
								{
									OFFSET 0 0 0
									CHANNELS 3 Zrotation Yrotation Xrotation
									End Site
									{
										OFFSET 0.46821 -0.00000 0.46821
									}
								}
							}
						}
					}
				}
				JOINT RightShoulder
				{
					OFFSET 0 0 0
					CHANNELS 3 Zrotation Yrotation Xrotation
					JOINT RightArm
					{
						OFFSET -3.08694 1.53706 0.36335
						CHANNELS 3 Zrotation Yrotation Xrotation
						JOINT RightForeArm
						{
							OFFSET -5.80940 -0.00000 -0.00000
							CHANNELS 3 Zrotation Yrotation Xrotation
							JOINT RightHand
							{
								OFFSET -3.66953 -0.00000 -0.00000
								CHANNELS 3 Zrotation Yrotation Xrotation
								JOINT RightFingerBase
								{
									OFFSET 0 0 0
									CHANNELS 3 Zrotation Yrotation Xrotation
									JOINT RightHandIndex1
									{
										OFFSET -0.57843 -0.00000 -0.00000
										CHANNELS 3 Zrotation Yrotation Xrotation
										End Site
										{
											OFFSET -0.46635 -0.00000 -0.00000
										}
									}
								}
								JOINT RThumb
								{
									OFFSET 0 0 0
									CHANNELS 3 Zrotation Yrotation Xrotation
									End Site
									{
										OFFSET -0.47347 -0.00000 0.47347
									}
								}
							}
						}
					}
				}
			}
		}
	}
}
MOTION
Frames: 8
Frame Time: .0083333
5.0267 18.3746 -28.0186 0 0 0 0 0 0 -21 0 0 0 0 0 0 0 0 0 0 0 0 0 0 21 0 0 0 0 0 0 0 0 0 0 0 0 0 0 0 0 0 0 0 0 0 0 -16 0 0 21 0 0 11 0 0 0 -8 0 0 0 0 0 0 0 0 0 0 0 0 0 0 0 0 0 0 0 0 8 0 0 0 0 0 0 0 0 0 0 0 0 0 0 0 0 0
5.0267 18.3746 -28.0186 1.9559 24.8626 4.3704 0.0000 0.0000 0.0000 -24.2882 -33.9970 -1.2762 2.9690 10.6447 31.0908 6.1101 -8.3527 -45.7384 0.0706 -1.7147 -4.7179 0.0000 0.0000 0.0000 21.8268 9.3308 -5.6637 -2.9923 -10.6826 31.2166 -3.4148 15.2077 -33.6054 -0.5941 4.9344 -13.7217 -3.3460 -0.6673 1.5285 -2.0572 -1.0673 -3.0007 -0.1949 -0.4581 -3.9296 5.8025 2.6710 -18.4985 -1.0143 2.5698 35.7320 -0.9448 1.8230 15.8908 0.0000 0.0000 0.0000 -86.2706 0.2685 36.0793 19.2603 -29.7408 -5.1593 -0.0000 0.0000 -20.6741 25.6760 11.0901 5.2833 -7.1250 0.0000 -0.0000 -1.2938 42.2462 0.0879 0.0000 0.0000 0.0000 98.6099 -8.0803 -21.8461 -13.6133 22.1792 -2.6804 0.0000 -0.0000 -8.3509 -46.6768 -5.9346 6.2563 7.1250 -0.0000 -0.0000 -17.0749 -38.0573 -3.0250
5.0267 18.3748 -28.0222 1.9629 24.7815 4.3453 0.0000 0.0000 0.0000 -24.2996 -33.9072 -1.2775 2.9646 10.6376 31.0671 6.1117 -8.3504 -45.7450 0.0694 -1.6992 -4.6751 0.0000 0.0000 0.0000 21.8014 9.3063 -5.6437 -2.9928 -10.6834 31.2194 -3.3935 15.3189 -33.5104 -0.5868 4.9045 -13.6364 -3.3974 -0.6994 1.5074 -2.0630 -1.1101 -2.9753 -0.1705 -0.4787 -3.8897 5.7856 2.6444 -18.4903 -0.9959 2.5276 35.7521 -0.9423 1.8054 15.8961 0.0000 -0.0000 0.0000 -86.1939 0.2600 36.2270 19.1917 -29.6562 -5.1254 -0.0000 0.0000 -20.6740 25.4561 11.0435 5.2102 -7.1250 0.0000 -0.0000 -1.4863 42.1721 0.1037 0.0000 -0.0000 0.0000 98.5573 -8.0137 -21.8722 -13.5625 22.1058 -2.6612 0.0000 -0.0000 -8.2418 -46.6985 -5.8905 6.2150 7.1250 -0.0000 -0.0000 -17.0831 -37.9984 -3.0522
5.0207 18.3710 -28.0196 2.0195 24.7593 4.2627 0.0000 0.0000 0.0000 -24.3973 -33.8272 -1.1401 2.9588 10.6280 31.0353 6.1127 -8.3346 -45.7507 0.0734 -1.7483 -4.8107 0.0000 0.0000 0.0000 21.8551 9.5058 -5.4031 -2.9971 -10.6904 31.2428 -3.4611 15.2951 -33.8404 -0.5861 4.9019 -13.6289 -3.5820 -0.7188 1.4960 -2.0991 -1.1400 -2.9025 -0.1037 -0.4903 -3.8048 5.7966 2.5755 -18.5007 -0.9388 2.3939 35.7683 -0.9450 1.7591 15.9002 -0.0000 -0.0000 0.0000 -86.0350 0.2440 36.5136 19.1016 -29.5448 -5.0809 -0.0000 0.0000 -20.6448 25.2284 11.0019 5.1382 -7.1250 0.0000 -0.0000 -1.6861 42.1029 0.1206 -0.0000 -0.0000 0.0000 98.6203 -7.9357 -22.0801 -13.4996 22.0148 -2.6376 0.0000 -0.0000 -8.0713 -46.7168 -5.8063 6.1310 7.1250 -0.0000 -0.0000 -17.0788 -37.8837 -3.1014
5.0160 18.3698 -28.0211 2.1011 24.7399 4.2400 0.0000 0.0000 0.0000 -24.4965 -33.7833 -1.0734 2.9524 10.6175 31.0006 6.1063 -8.2415 -45.7344 0.0738 -1.7525 -4.8222 0.0000 0.0000 0.0000 21.7985 9.4861 -5.3470 -3.0014 -10.6974 31.2659 -3.4692 15.3877 -33.8884 -0.5949 4.9377 -13.7310 -3.7466 -0.7604 1.5177 -2.1244 -1.2017 -2.8684 -0.0348 -0.5171 -3.7781 5.7558 2.5135 -18.5188 -0.8968 2.2952 35.7973 -0.9386 1.7180 15.9128 0.0000 -0.0000 0.0000 -85.9369 0.2421 36.7553 18.9450 -29.3503 -5.0039 -0.0000 0.0000 -20.3032 25.8660 11.3961 5.4723 -7.1250 0.0000 -0.0000 -1.1555 42.6030 0.0684 0.0000 -0.0000 0.0000 98.6300 -7.8790 -22.2097 -13.4453 21.9361 -2.6173 0.0000 -0.0000 -7.9103 -46.7016 -5.7250 6.0429 7.1250 -0.0000 -0.0000 -17.0462 -37.7697 -3.1447
5.0170 18.3715 -28.0294 2.1048 24.6239 4.2272 0.0000 0.0000 0.0000 -24.4918 -33.6712 -1.1015 2.9444 10.6045 30.9573 6.1071 -8.3046 -45.7313 0.0696 -1.7016 -4.6816 0.0000 0.0000 0.0000 21.7222 9.3828 -5.4466 -3.0096 -10.7105 31.3096 -3.4004 15.5260 -33.5644 -0.6067 4.9855 -13.8672 -3.7513 -0.7749 1.5454 -2.1303 -1.2219 -2.8416 -0.0371 -0.5276 -3.7654 5.6611 2.4697 -18.5552 -0.8293 2.2323 35.7947 -0.9048 1.6874 15.9143 -0.0000 -0.0000 0.0000 -85.8960 0.2176 36.9267 18.7930 -29.1607 -4.9296 -0.0000 0.0000 -20.1104 25.9558 11.6130 5.5965 -7.1250 0.0000 -0.0000 -1.0981 42.8516 0.0582 -0.0000 -0.0000 0.0000 98.6098 -7.8564 -22.1512 -13.4420 21.9313 -2.6160 0.0000 -0.0000 -7.9664 -46.7916 -5.7399 6.0775 7.1250 -0.0000 -0.0000 -17.1274 -37.7987 -3.1480
5.0184 18.3725 -28.0377 2.1454 24.5304 4.2331 0.0000 0.0000 0.0000 -24.5340 -33.5891 -1.1216 2.9381 10.5942 30.9232 6.1054 -8.3277 -45.7220 0.0662 -1.6605 -4.5684 0.0000 0.0000 0.0000 21.6169 9.2971 -5.5357 -3.0192 -10.7261 31.3617 -3.3682 15.6092 -33.4138 -0.6113 5.0041 -13.9201 -3.7487 -0.7702 1.5760 -2.1806 -1.2184 -2.8303 -0.0902 -0.5267 -3.7723 5.6246 2.3791 -18.5619 -0.7941 2.0916 35.7934 -0.9102 1.6280 15.9077 -0.0000 -0.0000 0.0000 -85.8056 0.2035 37.1138 18.5901 -28.9062 -4.8311 -0.0000 0.0000 -19.9322 25.8106 11.7354 5.6181 -7.1250 0.0000 -0.0000 -1.2434 42.9703 0.0623 -0.0000 -0.0000 0.0000 98.6406 -7.8365 -22.2411 -13.4278 21.9109 -2.6108 0.0000 -0.0000 -7.9926 -46.5947 -5.6426 5.9348 7.1250 -0.0000 -0.0000 -16.9344 -37.6460 -3.1759
5.0194 18.3721 -28.0455 2.2269 24.3667 4.2166 0.0000 0.0000 0.0000 -24.6317 -33.4237 -1.1091 2.9297 10.5804 30.8775 6.1051 -8.3545 -45.7177 0.0640 -1.6319 -4.4895 0.0000 0.0000 0.0000 21.4485 9.1383 -5.6437 -3.0340 -10.7498 31.4408 -3.3034 15.7451 -33.1078 -0.6153 5.0202 -13.9662 -3.7874 -0.7586 1.6119 -2.2440 -1.2060 -2.7721 -0.1343 -0.5214 -3.7334 5.6147 2.2965 -18.5862 -0.7789 1.9579 35.7507 -0.9273 1.5711 15.8860 -0.0000 0.0000 0.0000 -85.6959 0.1591 37.2804 18.3924 -28.6566 -4.7359 -0.0000 0.0000 -19.7529 25.7454 11.9099 5.6835 -7.1250 0.0000 -0.0000 -1.3228 43.1547 0.0602 -0.0000 0.0000 0.0000 98.7085 -7.8080 -22.1965 -13.4590 21.9560 -2.6224 0.0000 -0.0000 -8.1175 -46.6220 -5.6471 5.9452 7.1250 -0.0000 -0.0000 -16.9590 -37.6547 -3.1771
